<svg width="10" height="16" viewBox="0 0 10 16" fill="none" xmlns="http://www.w3.org/2000/svg">
<path d="M9.2006 11.152C9.59128 10.7616 9.59153 10.1285 9.20117 9.7378C8.8108 9.34712 8.17763 9.34687 7.78695 9.73724L9.2006 11.152ZM4.08826 13.433C3.69758 13.8233 3.69732 14.4565 4.08769 14.8472C4.47806 15.2379 5.11122 15.2381 5.5019 14.8477L4.08826 13.433ZM4.08826 14.8477C4.47894 15.2381 5.1121 15.2379 5.50247 14.8472C5.89284 14.4565 5.89259 13.8233 5.5019 13.433L4.08826 14.8477ZM1.80321 9.73724C1.41253 9.34687 0.779366 9.34712 0.388998 9.7378C-0.00136948 10.1285 -0.00111485 10.7616 0.389566 11.152L1.80321 9.73724ZM3.79508 14.1404C3.79508 14.6926 4.2428 15.1404 4.79508 15.1404C5.34737 15.1404 5.79508 14.6926 5.79508 14.1404H3.79508ZM5.79508 1C5.79508 0.447715 5.34737 0 4.79508 0C4.2428 0 3.79508 0.447715 3.79508 1H5.79508ZM7.78695 9.73724L4.08826 13.433L5.5019 14.8477L9.2006 11.152L7.78695 9.73724ZM5.5019 13.433L1.80321 9.73724L0.389566 11.152L4.08826 14.8477L5.5019 13.433ZM5.79508 14.1404L5.79508 1H3.79508L3.79508 14.1404H5.79508Z" fill="white"/>
</svg>
