<svg width="10" height="12" viewBox="0 0 10 12" fill="none" xmlns="http://www.w3.org/2000/svg">
<path fill-rule="evenodd" clip-rule="evenodd" d="M4.94786 0C2.99862 0 1.41845 1.61177 1.41845 3.6V5.14284C1.41845 5.69922 1.24153 6.2406 0.91425 6.68574L0.166867 7.70214C-0.11908 8.09106 -0.0355092 8.62362 0.402067 8.81622C1.18951 9.16284 2.64011 9.6 4.94786 9.6C7.25563 9.6 8.70621 9.16284 9.49363 8.81622C9.93121 8.62362 10.0148 8.09106 9.72886 7.70214L8.98145 6.68574C8.65421 6.2406 8.47727 5.69922 8.47727 5.14284V3.6C8.47727 1.61177 6.8971 0 4.94786 0ZM4.94786 11.7C4.21498 11.7 3.60727 11.1531 3.49562 10.4376C3.93633 10.4771 4.41963 10.5 4.94786 10.5C5.47604 10.5 5.95939 10.4771 6.4001 10.4376C6.28845 11.1531 5.68074 11.7 4.94786 11.7Z" fill="white"/>
</svg>
