<svg width="10" height="16" viewBox="0 0 10 16" fill="none" xmlns="http://www.w3.org/2000/svg">
<path d="M0.389613 3.98833C-0.00106835 4.3787 -0.00132251 5.01187 0.389045 5.40255C0.779412 5.79323 1.41258 5.79348 1.80326 5.40312L0.389613 3.98833ZM5.50195 1.70739C5.89263 1.31702 5.89289 0.683858 5.50252 0.293177C5.11215 -0.0975039 4.47899 -0.0977581 4.08831 0.292609L5.50195 1.70739ZM5.50195 0.292609C5.11127 -0.0977581 4.47811 -0.0975039 4.08774 0.293177C3.69737 0.683858 3.69762 1.31702 4.08831 1.70739L5.50195 0.292609ZM7.787 5.40311C8.17768 5.79348 8.81084 5.79323 9.20121 5.40255C9.59158 5.01187 9.59132 4.3787 9.20064 3.98833L7.787 5.40311ZM5.79513 1C5.79513 0.447715 5.34741 0 4.79513 0C4.24284 0 3.79513 0.447715 3.79513 1H5.79513ZM3.79513 14.1404C3.79513 14.6926 4.24284 15.1404 4.79513 15.1404C5.34741 15.1404 5.79513 14.6926 5.79513 14.1404H3.79513ZM1.80326 5.40312L5.50195 1.70739L4.08831 0.292609L0.389613 3.98833L1.80326 5.40312ZM4.08831 1.70739L7.787 5.40311L9.20064 3.98833L5.50195 0.292609L4.08831 1.70739ZM3.79513 1V14.1404H5.79513V1H3.79513Z" fill="white"/>
</svg>
