<svg width="12" height="11" viewBox="0 0 12 11" fill="none" xmlns="http://www.w3.org/2000/svg">
<path d="M5.45079 0.345636C5.65922 -0.115212 6.34078 -0.115212 6.54921 0.345636L7.81003 3.13377C7.89677 3.32557 8.08538 3.45698 8.30243 3.47681L11.4574 3.76509C11.9789 3.81274 12.1895 4.4343 11.7968 4.76674L9.42109 6.77819C9.25767 6.91658 9.1856 7.12919 9.23301 7.33324L9.92205 10.2996C10.0359 10.7899 9.48454 11.174 9.03344 10.9186L6.30432 9.37361C6.1166 9.26737 5.88339 9.26737 5.69567 9.37361L2.96656 10.9186C2.51547 11.174 1.96408 10.7899 2.07797 10.2996L2.76698 7.33324C2.81438 7.12919 2.74233 6.91658 2.5789 6.77819L0.203195 4.76674C-0.189478 4.4343 0.0211319 3.81274 0.54261 3.76509L3.69756 3.47681C3.9146 3.45698 4.10323 3.32557 4.18997 3.13377L5.45079 0.345636Z" fill="white"/>
</svg>
